<?xml version="1.0" encoding="UTF-8" standalone="no"?>
<!-- Created with Inkscape (http://www.inkscape.org/) -->

<svg
   width="48"
   height="48"
   viewBox="0 0 12.7 12.7"
   version="1.1"
   id="svg1"
   xml:space="preserve"
   inkscape:version="1.4.3 (0d15f75042, 2025-12-25)"
   sodipodi:docname="microbin-custom-logo.svg"
   xmlns:inkscape="http://www.inkscape.org/namespaces/inkscape"
   xmlns:sodipodi="http://sodipodi.sourceforge.net/DTD/sodipodi-0.dtd"
   xmlns="http://www.w3.org/2000/svg"
   xmlns:svg="http://www.w3.org/2000/svg"><sodipodi:namedview
     id="namedview1"
     pagecolor="#505050"
     bordercolor="#ffffff"
     borderopacity="1"
     inkscape:showpageshadow="0"
     inkscape:pageopacity="0"
     inkscape:pagecheckerboard="1"
     inkscape:deskcolor="#505050"
     inkscape:document-units="mm"
     inkscape:zoom="7.8715825"
     inkscape:cx="25.471371"
     inkscape:cy="28.774392"
     inkscape:window-width="1888"
     inkscape:window-height="1007"
     inkscape:window-x="0"
     inkscape:window-y="0"
     inkscape:window-maximized="0"
     inkscape:current-layer="layer1" /><defs
     id="defs1" /><g
     inkscape:label="Layer 1"
     inkscape:groupmode="layer"
     id="layer1"><path
       style="fill:#ffffff;stroke-width:1.38744"
       d="M 10.232455,12.227209 C 9.6398845,12.134148 9.1157635,11.696658 8.9200068,11.131694 8.7873133,10.748733 8.7966215,10.321726 8.9457407,9.9511714 9.1256663,9.504064 9.5015331,9.146249 9.9537901,8.9915352 c 0.3438969,-0.117644 0.7534619,-0.1156863 1.0996559,0.00526 0.470241,0.1642812 0.864959,0.5619187 1.025966,1.0335568 0.06996,0.204902 0.09052,0.359552 0.08133,0.611617 -0.01138,0.313535 -0.07348,0.53093 -0.222189,0.778367 -0.361153,0.600901 -1.023384,0.914093 -1.706106,0.806874 z m 0.495121,-1.175351 c 0.160835,-0.08252 0.254868,-0.204961 0.290085,-0.377713 0.03295,-0.161605 -0.01808,-0.338666 -0.132796,-0.460775 -0.231843,-0.2467912 -0.641222,-0.2158658 -0.82537,0.06235 -0.1985049,0.299906 -0.069057,0.677815 0.276318,0.80668 0.03579,0.01332 0.100373,0.01881 0.183573,0.01551 0.103424,-0.0042 0.143873,-0.01304 0.20819,-0.04605 z M 1.2847283,11.327515 C 1.0881632,11.302206 0.91409903,11.212641 0.76979509,11.062554 0.67332487,10.962217 0.60548049,10.836166 0.56702921,10.685823 c -0.029393,-0.114927 -0.0298328,-0.185454 -0.0298328,-4.7933233 0,-4.6078696 4.3885e-4,-4.6783956 0.0298328,-4.7933232 C 0.66618135,0.71149707 0.99627458,0.45283573 1.3904399,0.45395193 1.7601147,0.4549989 2.0447862,0.6513806 2.1922973,1.0071167 l 0.043835,0.1057119 0.00404,2.0277545 0.00404,2.0277544 0.083478,0.0534 C 2.8986016,5.5869424 3.5297767,5.6551641 4.1766935,5.4215899 4.2969223,5.378181 4.6217914,5.2210126 4.731679,5.1530947 L 4.78076,5.1227597 4.781287,3.1933022 C 4.7818619,1.0851428 4.7804477,1.1214644 4.8691395,0.93698925 5.1183808,0.41857785 5.7958209,0.28897677 6.2172999,0.67907256 6.3193726,0.77354486 6.3867402,0.87405309 6.4404304,1.0119687 l 0.039265,0.1008601 0.00755,2.9959553 0.00755,2.9959552 0.081362,0.020821 c 0.2649035,0.067789 0.5039606,0.3014215 0.5925902,0.5791369 0.047584,0.1491014 0.0443,0.3492088 -0.0083,0.5059051 C 7.077417,8.4579197 6.8988941,8.6488561 6.6649632,8.7405328 6.5191063,8.797694 6.362729,8.8105861 5.902102,8.8034283 5.5566698,8.7980589 5.4683839,8.7922455 5.3999271,8.7703725 5.0954537,8.6730733 4.8673863,8.4243837 4.8034787,8.1199928 4.7865866,8.039535 4.7812213,7.8957432 4.7810215,7.5180865 4.7808147,7.1264711 4.7767621,7.0234241 4.7618138,7.0291617 4.5709703,7.1023951 4.1791888,7.2008033 3.9275157,7.2387214 3.7173227,7.2703897 3.1098234,7.2662024 2.9006037,7.2316454 2.7223586,7.2022025 2.4287913,7.1324905 2.321067,7.0940251 2.284723,7.0810521 2.252577,7.0704301 2.249632,7.0704301 c -0.00294,0 -0.00719,0.8103922 -0.00942,1.8008715 L 2.236132,10.672173 2.192297,10.777885 C 2.0323,11.163731 1.6782009,11.378176 1.2847283,11.327515 Z"
       id="path1"
       sodipodi:nodetypes="csssscccccssssccssssssssscccssscsssscccsscsscsscsscsccss" /></g></svg>
